<?xml version="1.0" encoding="UTF-8"?>
<!DOCTYPE svg PUBLIC "-//W3C//DTD SVG 1.1//EN" "http://www.w3.org/Graphics/SVG/1.1/DTD/svg11.dtd">
<!-- Creator: CorelDRAW 2019 (64 Bit) -->
<svg xmlns="http://www.w3.org/2000/svg" xml:space="preserve" width="103mm" height="44.32mm" version="1.1" style="shape-rendering:geometricPrecision; text-rendering:geometricPrecision; image-rendering:optimizeQuality; fill-rule:evenodd; clip-rule:evenodd"
viewBox="0 0 10300 4432"
 xmlns:xlink="http://www.w3.org/1999/xlink">
 <defs>
  <style type="text/css">
   <![CDATA[
    .str0 {stroke:#FEFEFE;stroke-width:7.62;stroke-miterlimit:22.9256}
    .fil8 {fill:none;fill-rule:nonzero}
    .fil0 {fill:#FEFEFE}
    .fil4 {fill:#02ABF0}
    .fil5 {fill:#1D74BB}
    .fil7 {fill:#262163}
    .fil6 {fill:#2C388E}
    .fil1 {fill:#3AB244}
    .fil2 {fill:#F2931D}
    .fil3 {fill:#F72378}
    .fil9 {fill:#FEFEFE;fill-rule:nonzero}
   ]]>
  </style>
 </defs>
 <g id="Camada_x0020_1">
  <metadata id="CorelCorpID_0Corel-Layer"/>
  <g id="_2344613544912">
   <g>
    <g>
     <circle class="fil0" cx="2485.32" cy="388.29" r="156.88"/>
     <circle class="fil0" cx="3222.07" cy="324.29" r="156.88"/>
     <circle class="fil0" cx="3069.54" cy="1195.88" r="237.19"/>
     <path class="fil1" d="M2485.33 58.61c178.86,0 323.86,147.6 323.86,329.68 0,182.08 -145,329.68 -323.86,329.68 -178.87,0 -323.87,-147.6 -323.87,-329.68 0,-182.08 145,-329.68 323.87,-329.68zm0 190.33c75.59,0 136.88,62.4 136.88,139.35 0,76.95 -61.29,139.34 -136.88,139.34 -75.6,0 -136.88,-62.39 -136.88,-139.34 0,-76.95 61.28,-139.35 136.88,-139.35z"/>
     <path class="fil2" d="M3069.53 733.64c250.78,0 454.09,206.95 454.09,462.24 0,255.29 -203.31,462.24 -454.09,462.24 -250.78,0 -454.09,-206.95 -454.09,-462.24 0,-255.29 203.31,-462.24 454.09,-462.24zm0 266.87c106,0 191.92,87.48 191.92,195.37 0,107.89 -85.92,195.37 -191.92,195.37 -105.99,0 -191.92,-87.48 -191.92,-195.37 0,-107.89 85.93,-195.37 191.92,-195.37z"/>
     <path class="fil3" d="M3222.07 80.94c132.03,0 239.05,108.95 239.05,243.34 0,134.4 -107.02,243.35 -239.05,243.35 -132.02,0 -239.05,-108.95 -239.05,-243.35 0,-134.39 107.03,-243.34 239.05,-243.34zm0 140.49c55.8,0 101.04,46.05 101.04,102.85 0,56.8 -45.24,102.85 -101.04,102.85 -55.8,0 -101.03,-46.05 -101.03,-102.85 0,-56.8 45.23,-102.85 101.03,-102.85z"/>
    </g>
    <g>
     <path class="fil4" d="M1764.41 4375.87c-5.27,-0.25 -10.53,-0.53 -15.79,-0.82 5.26,0.3 10.52,0.57 15.79,0.82zm-41.99 -2.48c-821.93,-57.69 -1490.5,-671.75 -1631.94,-1468.27l0.02 0.09 801.68 0c33.54,78.59 97.32,141.45 176.9,174.32l0 199.52 0 281.28 653.34 313.42 0 499.64zm-1644.62 -1551.14c-0.39,-2.99 -0.77,-6 -1.14,-9l1.14 9z"/>
     <path class="fil5" d="M72.83 2779.74c-0.52,-4.89 -1,-9.79 -1.47,-14.69 0.47,4.9 0.96,9.8 1.47,14.69zm-3.86 -41.53c-0.62,-7.55 -1.17,-15.12 -1.7,-22.69 0.52,7.57 1.09,15.14 1.7,22.69zm-2.92 -41.94c-0.57,-9.54 -1.02,-19.1 -1.44,-28.68 0.41,9.58 0.89,19.14 1.44,28.68zm-2.05 -44.66c-0.72,-20.37 -1.16,-40.81 -1.16,-61.35 0,-944.63 732.18,-1718.03 1659.58,-1783.13l0 583.13c-119.06,49.17 -202.74,165.46 -202.74,301.11 0,135.64 83.68,251.93 202.74,301.1l0 1423.75 0 176.25 -399.74 -191.76 0 -321.2c119.06,-49.16 202.74,-165.45 202.74,-301.1 0,-180.12 -147.54,-326.13 -329.54,-326.13 -136.55,0 -253.71,82.2 -303.7,199.33l-828.18 0zm1684.62 -1846.14c5.26,-0.3 10.52,-0.57 15.79,-0.82 -5.27,0.25 -10.53,0.52 -15.79,0.82z"/>
     <path class="fil6" d="M1976.03 807.04c172.7,12.13 338.63,48.84 494.3,106.65 -39.07,85.8 -60.91,181.39 -60.91,282.19 0,371.12 295.55,671.96 660.11,671.96 133.31,0 257.36,-40.26 361.14,-109.44 70.04,133.05 123.82,276.01 158.68,426.22l-793.31 0c-49.99,-117.13 -167.14,-199.33 -303.7,-199.33 -182,0 -329.54,146.01 -329.54,326.13 0,135.65 83.68,251.94 202.74,301.1l0 495.1 -389.51 186.91 0 -1302.06c119.05,-49.17 202.73,-165.46 202.73,-301.1 0,-135.65 -83.68,-251.94 -202.73,-301.11l0 -583.22z"/>
     <path class="fil7" d="M3628.93 2434.81c4.42,51.23 6.67,103.07 6.67,155.45 0,944.63 -732.17,1718.03 -1659.57,1783.13l0 -797.5 643.11 -308.44 0 -281.52 0 -373.39c79.59,-32.87 143.37,-95.73 176.91,-174.32l833.17 0 -0.29 -3.41zm-1679.1 1940.24c-5.26,0.3 -10.52,0.57 -15.79,0.82 5.27,-0.25 10.53,-0.52 15.79,-0.82z"/>
     <path class="fil0" d="M1976.03 807.04l0 583.22c119.05,49.17 202.73,165.46 202.73,301.11 0,135.64 -83.68,251.93 -202.73,301.1l0 1302.06 389.51 -186.91 0 -495.1c-119.06,-49.16 -202.74,-165.45 -202.74,-301.1 0,-180.12 147.54,-326.13 329.54,-326.13 136.56,0 253.71,82.2 303.7,199.33l793.31 0c19.14,82.49 32.58,167.17 39.87,253.6l-833.17 0c-33.54,78.59 -97.32,141.45 -176.91,174.32l0 373.39 0 281.52 -643.11 308.44 0 797.5c-41.9,2.94 -84.16,4.54 -126.8,4.54 -42.65,0 -84.91,-1.6 -126.81,-4.54l0 -499.64 -653.34 -313.42 0 -281.28 0 -199.52c-79.58,-32.87 -143.36,-95.73 -176.9,-174.32l-801.68 0c-14.69,-82.7 -23.59,-167.39 -26.5,-253.6l828.18 0c49.99,-117.13 167.15,-199.33 303.7,-199.33 182,0 329.54,146.01 329.54,326.13 0,135.65 -83.68,251.94 -202.74,301.1l0 321.2 399.74 191.76 0 -176.25 0 -1423.75c-119.06,-49.17 -202.74,-165.46 -202.74,-301.1 0,-135.65 83.68,-251.94 202.74,-301.11l0 -583.13c41.9,-2.94 84.16,-4.54 126.81,-4.54 42.63,0 84.91,1.51 126.8,4.45z"/>
     <ellipse class="fil7" cx="1195.88" cy="2778.41" rx="135.07" ry="133.68"/>
     <ellipse class="fil7" cx="1849.22" cy="1691.37" rx="135.07" ry="133.68"/>
     <ellipse class="fil7" cx="2492.34" cy="2311.42" rx="135.07" ry="133.68"/>
    </g>
   </g>
   <g>
    <g>
     <g>
      <path class="fil8 str0" d="M4884.22 2668.01c-73.58,0 -101.35,55.18 -101.35,122.08l0 245.54c0,66.9 27.77,122.08 101.35,122.08 74.28,0 102.03,-55.18 102.03,-122.08l0 -52.42 -15.26 0 0 53.11c0,58.62 -22.21,106.9 -86.07,106.9 -64.57,0 -86.78,-48.28 -86.78,-106.9l0 -246.92c0,-58.62 22.21,-107.59 86.78,-107.59 63.86,0 86.07,48.97 86.07,107.59l0 37.94 15.26 0 0 -37.25c0,-66.9 -27.75,-122.08 -102.03,-122.08zm155.49 367.62c0,80.01 35.39,122.08 102.73,122.08 68.72,0 104.12,-42.07 104.12,-122.08l0 -245.54c0,-80 -35.4,-122.08 -104.12,-122.08 -67.34,0 -102.73,42.08 -102.73,122.08l0 245.54zm15.26 -246.23c0,-71.04 29.86,-107.59 87.47,-107.59 58.31,0 88.85,36.55 88.85,107.59l0 246.92c0,71.04 -30.54,107.59 -88.85,107.59 -57.61,0 -87.47,-36.55 -87.47,-107.59l0 -246.92zm261 -95.87l173.54 460.73 18.74 0 0 -482.8 -14.57 0 0 451.76 -170.76 -451.76 -21.52 0 0 482.8 14.57 0 0 -460.73zm356.8 460.73l0 -468.31 106.21 0 0 -14.49 -227.69 0 0 14.49 106.21 0 0 468.31 15.27 0zm150.63 -482.8l0 482.8 15.27 0 0 -222.78 59.7 0c63.16,0 106.2,18.63 106.2,89.67l0 75.86c0,20.7 2.08,42.08 11.8,57.25l16.66 0c-11.1,-15.17 -13.18,-38.62 -13.18,-57.25l0 -75.86c0,-53.11 -22.91,-88.29 -77.06,-96.56 53.46,-9.66 77.06,-42.08 77.06,-101.39l0 -43.45c0,-66.21 -27.77,-108.29 -99.96,-108.29l-96.49 0zm15.27 245.54l0 -231.05 80.52 0c62.47,0 85.38,36.55 85.38,95.18l0 44.14c0,74.49 -38.87,91.73 -106.2,91.73l-59.7 0zm247.81 118.63c0,80.01 35.4,122.08 102.74,122.08 68.72,0 104.12,-42.07 104.12,-122.08l0 -245.54c0,-80 -35.4,-122.08 -104.12,-122.08 -67.34,0 -102.74,42.08 -102.74,122.08l0 245.54zm15.27 -246.23c0,-71.04 29.85,-107.59 87.47,-107.59 58.3,0 88.85,36.55 88.85,107.59l0 246.92c0,71.04 -30.55,107.59 -88.85,107.59 -57.62,0 -87.47,-36.55 -87.47,-107.59l0 -246.92zm424.82 364.86l0 -14.48 -163.12 0 0 -468.32 -15.27 0 0 482.8 178.39 0zm68.02 -251.74l0 -216.57 170.07 0 0 -14.49 -185.33 0 0 482.8 185.33 0 0 -14.48 -170.07 0 0 -223.47 143 0 0 -13.79 -143 0zm347.08 0l0 -216.57 170.07 0 0 -14.49 -185.33 0 0 482.8 185.33 0 0 -14.48 -170.07 0 0 -223.47 143 0 0 -13.79 -143 0zm494.94 -208.3l0 460.04 15.27 0 0 -482.8 -23.6 0 -119.4 457.97 -119.39 -457.97 -23.6 0 0 482.8 13.88 0 0 -460.04 120.09 458.66 17.36 0 119.39 -458.66zm178.4 -22.76l0 482.8 15.27 0 0 -204.84 69.41 0c77.06,0 111.77,-36.56 111.77,-113.12l0 -48.28c0,-67.59 -25.69,-116.56 -100.66,-116.56l-95.79 0zm15.27 263.47l0 -248.98 80.52 0c65.25,0 85.38,42.07 85.38,101.38l0 49.66c0,68.28 -28.46,97.94 -96.49,97.94l-69.41 0zm249.9 -32.41l0 -216.57 170.07 0 0 -14.49 -185.34 0 0 482.8 185.34 0 0 -14.48 -170.07 0 0 -223.47 142.99 0 0 -13.79 -142.99 0zm324.87 -234.51c-70.11,0.69 -99.96,48.97 -99.96,119.32 0,133.12 186.03,128.98 186.03,251.06 0,58.62 -22.91,104.83 -86.77,104.83 -63.87,0 -86.77,-46.21 -86.77,-104.83l0 -24.14 -14.58 0 0 23.45c0,66.9 27.77,120.01 101.35,120.01 74.28,0 102.03,-53.11 102.03,-120.01 0,-131.05 -186.03,-127.6 -186.03,-251.06 0,-57.24 21.52,-104.83 85.39,-104.83 63.16,0 84.68,48.28 84.68,105.52l0 9.66 15.27 0 0 -8.97c0,-66.21 -27.06,-120.01 -100.64,-120.01zm258.22 0c-74.28,0 -103.43,54.49 -103.43,122.08l0 245.54c0,67.59 29.15,122.08 103.43,122.08 29.84,0 52.05,-8.97 68.02,-23.45 11.8,19.31 29.84,26.9 54.14,26.9l7.64 0 0 -13.8 -7.64 0c-19.43,0 -34.01,-5.51 -44.42,-22.76 18.05,-22.07 26.37,-53.11 26.37,-88.97l0 -245.54c0,-67.59 -29.85,-122.08 -104.11,-122.08zm0 13.8c64.55,0 88.85,48.28 88.85,107.59l0 246.92c0,59.31 -24.3,107.59 -88.85,107.59 -64.57,0 -88.17,-48.28 -88.17,-107.59l0 -246.92c0,-59.31 23.6,-107.59 88.17,-107.59zm197.82 -10.35l-15.26 0 0 363.48c0,66.21 26.37,122.77 100.65,122.77 73.58,0 99.95,-56.56 99.95,-122.77l0 -363.48 -14.57 0 0 364.17c0,57.94 -20.83,108.28 -85.38,108.28 -64.56,0 -85.39,-50.34 -85.39,-108.28l0 -364.17zm240.18 0l0 482.8 15.27 0 0 -482.8 -15.27 0zm171.46 -3.45c-70.11,0.69 -99.96,48.97 -99.96,119.32 0,133.12 186.03,128.98 186.03,251.06 0,58.62 -22.91,104.83 -86.77,104.83 -63.87,0 -86.77,-46.21 -86.77,-104.83l0 -24.14 -14.58 0 0 23.45c0,66.9 27.77,120.01 101.35,120.01 74.28,0 102.04,-53.11 102.04,-120.01 0,-131.05 -186.03,-127.6 -186.03,-251.06 0,-57.24 21.51,-104.83 85.38,-104.83 63.17,0 84.68,48.28 84.68,105.52l0 9.66 15.27 0 0 -8.97c0,-66.21 -27.06,-120.01 -100.64,-120.01zm368.58 372.45l28.47 113.8 15.26 0 -120.08 -483.49 -21.52 0 -117.31 483.49 13.88 0 28.46 -113.8 172.84 0zm-87.45 -351.75l84.68 337.95 -167.29 0 82.61 -337.95z"/>
      <path id="1" class="fil9" d="M4884.22 2668.01c-73.58,0 -101.35,55.18 -101.35,122.08l0 245.54c0,66.9 27.77,122.08 101.35,122.08 74.28,0 102.03,-55.18 102.03,-122.08l0 -52.42 -15.26 0 0 53.11c0,58.62 -22.21,106.9 -86.07,106.9 -64.57,0 -86.78,-48.28 -86.78,-106.9l0 -246.92c0,-58.62 22.21,-107.59 86.78,-107.59 63.86,0 86.07,48.97 86.07,107.59l0 37.94 15.26 0 0 -37.25c0,-66.9 -27.75,-122.08 -102.03,-122.08zm155.49 367.62c0,80.01 35.39,122.08 102.73,122.08 68.72,0 104.12,-42.07 104.12,-122.08l0 -245.54c0,-80 -35.4,-122.08 -104.12,-122.08 -67.34,0 -102.73,42.08 -102.73,122.08l0 245.54zm15.26 -246.23c0,-71.04 29.86,-107.59 87.47,-107.59 58.31,0 88.85,36.55 88.85,107.59l0 246.92c0,71.04 -30.54,107.59 -88.85,107.59 -57.61,0 -87.47,-36.55 -87.47,-107.59l0 -246.92zm261 -95.87l173.54 460.73 18.74 0 0 -482.8 -14.57 0 0 451.76 -170.76 -451.76 -21.52 0 0 482.8 14.57 0 0 -460.73zm356.8 460.73l0 -468.31 106.21 0 0 -14.49 -227.69 0 0 14.49 106.21 0 0 468.31 15.27 0zm150.63 -482.8l0 482.8 15.27 0 0 -222.78 59.7 0c63.16,0 106.2,18.63 106.2,89.67l0 75.86c0,20.7 2.08,42.08 11.8,57.25l16.66 0c-11.1,-15.17 -13.18,-38.62 -13.18,-57.25l0 -75.86c0,-53.11 -22.91,-88.29 -77.06,-96.56 53.46,-9.66 77.06,-42.08 77.06,-101.39l0 -43.45c0,-66.21 -27.77,-108.29 -99.96,-108.29l-96.49 0zm15.27 245.54l0 -231.05 80.52 0c62.47,0 85.38,36.55 85.38,95.18l0 44.14c0,74.49 -38.87,91.73 -106.2,91.73l-59.7 0zm247.81 118.63c0,80.01 35.4,122.08 102.74,122.08 68.72,0 104.12,-42.07 104.12,-122.08l0 -245.54c0,-80 -35.4,-122.08 -104.12,-122.08 -67.34,0 -102.74,42.08 -102.74,122.08l0 245.54zm15.27 -246.23c0,-71.04 29.85,-107.59 87.47,-107.59 58.3,0 88.85,36.55 88.85,107.59l0 246.92c0,71.04 -30.55,107.59 -88.85,107.59 -57.62,0 -87.47,-36.55 -87.47,-107.59l0 -246.92zm424.82 364.86l0 -14.48 -163.12 0 0 -468.32 -15.27 0 0 482.8 178.39 0zm68.02 -251.74l0 -216.57 170.07 0 0 -14.49 -185.33 0 0 482.8 185.33 0 0 -14.48 -170.07 0 0 -223.47 143 0 0 -13.79 -143 0zm347.08 0l0 -216.57 170.07 0 0 -14.49 -185.33 0 0 482.8 185.33 0 0 -14.48 -170.07 0 0 -223.47 143 0 0 -13.79 -143 0zm494.94 -208.3l0 460.04 15.27 0 0 -482.8 -23.6 0 -119.4 457.97 -119.39 -457.97 -23.6 0 0 482.8 13.88 0 0 -460.04 120.09 458.66 17.36 0 119.39 -458.66zm178.4 -22.76l0 482.8 15.27 0 0 -204.84 69.41 0c77.06,0 111.77,-36.56 111.77,-113.12l0 -48.28c0,-67.59 -25.69,-116.56 -100.66,-116.56l-95.79 0zm15.27 263.47l0 -248.98 80.52 0c65.25,0 85.38,42.07 85.38,101.38l0 49.66c0,68.28 -28.46,97.94 -96.49,97.94l-69.41 0zm249.9 -32.41l0 -216.57 170.07 0 0 -14.49 -185.34 0 0 482.8 185.34 0 0 -14.48 -170.07 0 0 -223.47 142.99 0 0 -13.79 -142.99 0zm324.87 -234.51c-70.11,0.69 -99.96,48.97 -99.96,119.32 0,133.12 186.03,128.98 186.03,251.06 0,58.62 -22.91,104.83 -86.77,104.83 -63.87,0 -86.77,-46.21 -86.77,-104.83l0 -24.14 -14.58 0 0 23.45c0,66.9 27.77,120.01 101.35,120.01 74.28,0 102.03,-53.11 102.03,-120.01 0,-131.05 -186.03,-127.6 -186.03,-251.06 0,-57.24 21.52,-104.83 85.39,-104.83 63.16,0 84.68,48.28 84.68,105.52l0 9.66 15.27 0 0 -8.97c0,-66.21 -27.06,-120.01 -100.64,-120.01zm258.22 0c-74.28,0 -103.43,54.49 -103.43,122.08l0 245.54c0,67.59 29.15,122.08 103.43,122.08 29.84,0 52.05,-8.97 68.02,-23.45 11.8,19.31 29.84,26.9 54.14,26.9l7.64 0 0 -13.8 -7.64 0c-19.43,0 -34.01,-5.51 -44.42,-22.76 18.05,-22.07 26.37,-53.11 26.37,-88.97l0 -245.54c0,-67.59 -29.85,-122.08 -104.11,-122.08zm0 13.8c64.55,0 88.85,48.28 88.85,107.59l0 246.92c0,59.31 -24.3,107.59 -88.85,107.59 -64.57,0 -88.17,-48.28 -88.17,-107.59l0 -246.92c0,-59.31 23.6,-107.59 88.17,-107.59zm197.82 -10.35l-15.26 0 0 363.48c0,66.21 26.37,122.77 100.65,122.77 73.58,0 99.95,-56.56 99.95,-122.77l0 -363.48 -14.57 0 0 364.17c0,57.94 -20.83,108.28 -85.38,108.28 -64.56,0 -85.39,-50.34 -85.39,-108.28l0 -364.17zm240.18 0l0 482.8 15.27 0 0 -482.8 -15.27 0zm171.46 -3.45c-70.11,0.69 -99.96,48.97 -99.96,119.32 0,133.12 186.03,128.98 186.03,251.06 0,58.62 -22.91,104.83 -86.77,104.83 -63.87,0 -86.77,-46.21 -86.77,-104.83l0 -24.14 -14.58 0 0 23.45c0,66.9 27.77,120.01 101.35,120.01 74.28,0 102.04,-53.11 102.04,-120.01 0,-131.05 -186.03,-127.6 -186.03,-251.06 0,-57.24 21.51,-104.83 85.38,-104.83 63.17,0 84.68,48.28 84.68,105.52l0 9.66 15.27 0 0 -8.97c0,-66.21 -27.06,-120.01 -100.64,-120.01zm368.58 372.45l28.47 113.8 15.26 0 -120.08 -483.49 -21.52 0 -117.31 483.49 13.88 0 28.46 -113.8 172.84 0zm-87.45 -351.75l84.68 337.95 -167.29 0 82.61 -337.95z"/>
     </g>
     <g>
      <path class="fil8 str0" d="M5209.77 3606.7l0 -216.57 170.07 0 0 -14.49 -185.34 0 0 482.8 185.34 0 0 -14.48 -170.07 0 0 -223.47 142.99 0 0 -13.79 -142.99 0zm347.08 0l0 -216.57 170.07 0 0 -14.49 -185.34 0 0 482.8 185.34 0 0 -14.48 -170.07 0 0 -223.47 142.99 0 0 -13.79 -142.99 0zm462.31 251.74l16.65 0 -118 -251.05 110.37 -231.75 -15.27 0 -104.81 218.64 -104.82 -218.64 -15.97 0 110.37 231.75 -118.7 251.05 15.96 0 111.77 -237.26 112.45 237.26zm70.11 -482.8l0 482.8 15.26 0 0 -204.84 69.42 0c77.05,0 111.76,-36.56 111.76,-113.12l0 -48.28c0,-67.59 -25.68,-116.56 -100.65,-116.56l-95.79 0zm15.26 263.47l0 -248.98 80.53 0c65.25,0 85.37,42.07 85.37,101.38l0 49.66c0,68.28 -28.46,97.94 -96.48,97.94l-69.42 0zm249.9 -32.41l0 -216.57 170.07 0 0 -14.49 -185.34 0 0 482.8 185.34 0 0 -14.48 -170.07 0 0 -223.47 143 0 0 -13.79 -143 0zm224.22 -231.06l0 482.8 15.26 0 0 -222.78 59.71 0c63.16,0 106.2,18.63 106.2,89.67l0 75.86c0,20.7 2.08,42.08 11.8,57.25l16.66 0c-11.1,-15.17 -13.19,-38.62 -13.19,-57.25l0 -75.86c0,-53.11 -22.9,-88.29 -77.05,-96.56 53.45,-9.66 77.05,-42.08 77.05,-101.39l0 -43.45c0,-66.21 -27.76,-108.29 -99.96,-108.29l-96.48 0zm15.26 245.54l0 -231.05 80.53 0c62.47,0 85.38,36.55 85.38,95.18l0 44.14c0,74.49 -38.87,91.73 -106.2,91.73l-59.71 0zm248.51 -245.54l0 482.8 15.27 0 0 -482.8 -15.27 0zm341.53 22.76l0 460.04 15.27 0 0 -482.8 -23.6 0 -119.4 457.97 -119.39 -457.97 -23.6 0 0 482.8 13.88 0 0 -460.04 120.08 458.66 17.36 0 119.4 -458.66zm86.07 208.3l0 -216.57 170.07 0 0 -14.49 -185.34 0 0 482.8 185.34 0 0 -14.48 -170.07 0 0 -223.47 142.99 0 0 -13.79 -142.99 0zm238.79 -208.99l173.54 460.73 18.74 0 0 -482.8 -14.58 0 0 451.76 -170.76 -451.76 -21.52 0 0 482.8 14.58 0 0 -460.73zm356.79 460.73l0 -468.31 106.21 0 0 -14.49 -227.69 0 0 14.49 106.21 0 0 468.31 15.27 0zm337.36 -113.8l28.46 113.8 15.27 0 -120.09 -483.49 -21.52 0 -117.31 483.49 13.88 0 28.46 -113.8 172.85 0zm-87.46 -351.75l84.68 337.95 -167.29 0 82.61 -337.95zm285.29 -20.7c-73.58,0 -101.35,55.18 -101.35,122.08l0 245.54c0,64.83 26.38,119.32 96.49,122.08l0 30.35 3.47 0c21.52,0 45.82,3.44 45.82,29.65 0,23.45 -26.38,32.42 -45.82,32.42 -20.12,-0.69 -47.2,-8.97 -47.2,-33.11l0 -2.07 -11.8 0 0 2.76c0,29.66 31.93,40.7 59,40.7 27.08,0.69 58.31,-10.35 58.31,-40.7 0,-29.65 -24.99,-35.86 -52.07,-36.55l0 -23.45c70.12,-2.07 97.19,-57.25 97.19,-122.08l0 -52.42 -15.27 0 0 53.11c0,58.62 -22.21,106.9 -86.07,106.9 -64.57,0 -86.78,-48.28 -86.78,-106.9l0 -246.92c0,-58.62 22.21,-107.59 86.78,-107.59 63.86,0 86.07,48.97 86.07,107.59l0 37.94 15.27 0 0 -37.25c0,-66.9 -27.76,-122.08 -102.04,-122.08zm250.59 -68.97c-17.35,0.69 -29.16,11.73 -37.49,27.59l9.72 6.21c6.25,-11.73 15.27,-21.38 28.46,-21.38 22.91,-0.69 41.65,26.9 65.94,25.52 15.27,-0.69 25.69,-13.11 33.33,-27.59l-10.42 -6.21c-4.86,10.35 -12.49,20.69 -24.3,21.38 -20.82,1.38 -39.56,-25.52 -65.24,-25.52l0 0zm118.7 441.42l28.46 113.8 15.27 0 -120.09 -483.49 -21.52 0 -117.31 483.49 13.88 0 28.46 -113.8 172.85 0zm-87.46 -351.75l84.68 337.95 -167.29 0 82.61 -337.95zm183.94 346.92c0,80.01 35.4,122.08 102.74,122.08 68.72,0 104.12,-42.07 104.12,-122.08l0 -245.54c0,-80 -35.4,-122.08 -104.12,-122.08 -67.34,0 -102.74,42.08 -102.74,122.08l0 245.54zm15.27 -246.23c0,-71.04 29.85,-107.59 87.47,-107.59 58.3,0 88.85,36.55 88.85,107.59l0 246.92c0,71.04 -30.55,107.59 -88.85,107.59 -57.62,0 -87.47,-36.55 -87.47,-107.59l0 -246.92z"/>
      <path id="1" class="fil9" d="M5209.77 3606.7l0 -216.57 170.07 0 0 -14.49 -185.34 0 0 482.8 185.34 0 0 -14.48 -170.07 0 0 -223.47 142.99 0 0 -13.79 -142.99 0zm347.08 0l0 -216.57 170.07 0 0 -14.49 -185.34 0 0 482.8 185.34 0 0 -14.48 -170.07 0 0 -223.47 142.99 0 0 -13.79 -142.99 0zm462.31 251.74l16.65 0 -118 -251.05 110.37 -231.75 -15.27 0 -104.81 218.64 -104.82 -218.64 -15.97 0 110.37 231.75 -118.7 251.05 15.96 0 111.77 -237.26 112.45 237.26zm70.11 -482.8l0 482.8 15.26 0 0 -204.84 69.42 0c77.05,0 111.76,-36.56 111.76,-113.12l0 -48.28c0,-67.59 -25.68,-116.56 -100.65,-116.56l-95.79 0zm15.26 263.47l0 -248.98 80.53 0c65.25,0 85.37,42.07 85.37,101.38l0 49.66c0,68.28 -28.46,97.94 -96.48,97.94l-69.42 0zm249.9 -32.41l0 -216.57 170.07 0 0 -14.49 -185.34 0 0 482.8 185.34 0 0 -14.48 -170.07 0 0 -223.47 143 0 0 -13.79 -143 0zm224.22 -231.06l0 482.8 15.26 0 0 -222.78 59.71 0c63.16,0 106.2,18.63 106.2,89.67l0 75.86c0,20.7 2.08,42.08 11.8,57.25l16.66 0c-11.1,-15.17 -13.19,-38.62 -13.19,-57.25l0 -75.86c0,-53.11 -22.9,-88.29 -77.05,-96.56 53.45,-9.66 77.05,-42.08 77.05,-101.39l0 -43.45c0,-66.21 -27.76,-108.29 -99.96,-108.29l-96.48 0zm15.26 245.54l0 -231.05 80.53 0c62.47,0 85.38,36.55 85.38,95.18l0 44.14c0,74.49 -38.87,91.73 -106.2,91.73l-59.71 0zm248.51 -245.54l0 482.8 15.27 0 0 -482.8 -15.27 0zm341.53 22.76l0 460.04 15.27 0 0 -482.8 -23.6 0 -119.4 457.97 -119.39 -457.97 -23.6 0 0 482.8 13.88 0 0 -460.04 120.08 458.66 17.36 0 119.4 -458.66zm86.07 208.3l0 -216.57 170.07 0 0 -14.49 -185.34 0 0 482.8 185.34 0 0 -14.48 -170.07 0 0 -223.47 142.99 0 0 -13.79 -142.99 0zm238.79 -208.99l173.54 460.73 18.74 0 0 -482.8 -14.58 0 0 451.76 -170.76 -451.76 -21.52 0 0 482.8 14.58 0 0 -460.73zm356.79 460.73l0 -468.31 106.21 0 0 -14.49 -227.69 0 0 14.49 106.21 0 0 468.31 15.27 0zm337.36 -113.8l28.46 113.8 15.27 0 -120.09 -483.49 -21.52 0 -117.31 483.49 13.88 0 28.46 -113.8 172.85 0zm-87.46 -351.75l84.68 337.95 -167.29 0 82.61 -337.95zm285.29 -20.7c-73.58,0 -101.35,55.18 -101.35,122.08l0 245.54c0,64.83 26.38,119.32 96.49,122.08l0 30.35 3.47 0c21.52,0 45.82,3.44 45.82,29.65 0,23.45 -26.38,32.42 -45.82,32.42 -20.12,-0.69 -47.2,-8.97 -47.2,-33.11l0 -2.07 -11.8 0 0 2.76c0,29.66 31.93,40.7 59,40.7 27.08,0.69 58.31,-10.35 58.31,-40.7 0,-29.65 -24.99,-35.86 -52.07,-36.55l0 -23.45c70.12,-2.07 97.19,-57.25 97.19,-122.08l0 -52.42 -15.27 0 0 53.11c0,58.62 -22.21,106.9 -86.07,106.9 -64.57,0 -86.78,-48.28 -86.78,-106.9l0 -246.92c0,-58.62 22.21,-107.59 86.78,-107.59 63.86,0 86.07,48.97 86.07,107.59l0 37.94 15.27 0 0 -37.25c0,-66.9 -27.76,-122.08 -102.04,-122.08zm250.59 -68.97c-17.35,0.69 -29.16,11.73 -37.49,27.59l9.72 6.21c6.25,-11.73 15.27,-21.38 28.46,-21.38 22.91,-0.69 41.65,26.9 65.94,25.52 15.27,-0.69 25.69,-13.11 33.33,-27.59l-10.42 -6.21c-4.86,10.35 -12.49,20.69 -24.3,21.38 -20.82,1.38 -39.56,-25.52 -65.24,-25.52l0 0zm118.7 441.42l28.46 113.8 15.27 0 -120.09 -483.49 -21.52 0 -117.31 483.49 13.88 0 28.46 -113.8 172.85 0zm-87.46 -351.75l84.68 337.95 -167.29 0 82.61 -337.95zm183.94 346.92c0,80.01 35.4,122.08 102.74,122.08 68.72,0 104.12,-42.07 104.12,-122.08l0 -245.54c0,-80 -35.4,-122.08 -104.12,-122.08 -67.34,0 -102.74,42.08 -102.74,122.08l0 245.54zm15.27 -246.23c0,-71.04 29.85,-107.59 87.47,-107.59 58.3,0 88.85,36.55 88.85,107.59l0 246.92c0,71.04 -30.55,107.59 -88.85,107.59 -57.62,0 -87.47,-36.55 -87.47,-107.59l0 -246.92z"/>
     </g>
    </g>
    <g id="_2344613545712">
     <path class="fil9" d="M4888.91 2057.3c-87.35,85.89 -203.83,129.57 -318.84,129.57 -294.1,0 -445.51,-206.74 -448.42,-445.51 -1.46,-244.59 151.41,-454.24 448.42,-454.24 115.01,0 230.03,42.22 317.39,129.58l53.86 -46.59c-101.91,-101.92 -237.31,-152.87 -371.25,-152.87 -349.42,0 -527.04,254.78 -524.13,527.04 1.46,275.16 180.53,515.39 524.13,515.39 133.94,0 269.34,-50.96 371.25,-152.87l-52.41 -49.5zm302.83 -738.15l0 209.65 -152.87 0 0 59.69 152.87 0 0 438.23c0,141.22 49.5,231.49 202.37,231.49 45.13,0 90.27,-14.56 135.4,-36.4l-24.75 -58.23c-36.4,17.47 -75.71,29.12 -110.65,29.12 -112.1,0 -132.49,-68.43 -132.49,-165.98l0 -438.23 244.6 0 0 -59.69 -244.6 0 0 -216.93 -69.88 7.28zm479 209.65l0 719.22 71.33 0 0 -419.3c0,-131.03 103.37,-238.77 237.32,-240.23 42.22,0 84.44,10.19 122.29,33.49l32.03 -58.24c-48.04,-29.12 -100.45,-43.68 -154.32,-42.22 -91.72,0 -193.64,37.85 -238.77,135.4l-2.91 -128.12 -66.97 0zm570.72 -301.37l0 1020.59 71.33 0 0 -1020.59 -71.33 0zm262.06 487.73l0 69.88 254.78 0 0 257.7 68.43 0 0 -257.7 254.79 0 0 -69.88 -254.79 0 0 -250.42 -68.43 0 0 250.42 -254.78 0z"/>
     <path class="fil9" d="M7611.39 1412.32l288.27 0c244.59,0 246.05,361.07 0,361.07l-288.27 0 0 -361.07zm288.27 -183.44c-160.15,-1.46 -320.3,0 -480.45,0l0 1020.59 192.18 0 0 -299.92 288.27 0c499.38,0 497.92,-720.67 0,-720.67zm1263.73 831.32l-572.17 0 0 -230.03 551.79 0 0 -179.08 -551.79 0 0 -235.86 572.17 0 0 -186.35 -762.89 0c0,340.19 0,681.36 0,1020.59l762.89 0 0 -189.27zm585.28 -450.85l-254.78 -380.47 -211.11 0 0 8.73 343.6 495.74 -353.79 510.3 0 5.82 215.47 0 260.61 -383.39 260.61 383.39 215.48 0 0 -5.82 -355.25 -510.3 345.05 -495.74 0 -8.73 -211.1 0 -254.79 380.47z"/>
    </g>
   </g>
  </g>
 </g>
</svg>
